<svg xmlns="http://www.w3.org/2000/svg" viewBox="0 0 58 40">
  <defs>
    <linearGradient id="bolt-grad" x1="0%" y1="0%" x2="100%" y2="100%">
      <stop offset="0%" stop-color="#E84057"/>
      <stop offset="100%" stop-color="#ff6b81"/>
    </linearGradient>
  </defs>
  <g fill="url(#bolt-grad)" transform="translate(14,20) rotate(-20) translate(-14,-20) translate(0,-2) scale(0.55)">
    <path d="m60 47.41h-5.6c-0.3 0-0.59-0.13-0.78-0.35-0.2-0.23-0.27-0.54-0.22-0.83l2.76-17.55c0.06-0.46-0.2-0.91-0.64-1.07-0.44-0.16-0.93 0-1.19 0.39l-15.21 23c-0.23 0.32-0.26 0.73-0.07 1.08 0.19 0.34 0.56 0.54 0.95 0.51h5.6c0.3 0 0.59 0.13 0.78 0.35 0.2 0.23 0.27 0.54 0.22 0.83l-2.78 17.55c-0.13 0.49 0.14 1 0.61 1.18 0.47 0.18 1-0.02 1.25-0.46l15.21-23.04c0.23-0.32 0.26-0.73 0.07-1.08-0.19-0.34-0.56-0.54-0.95-0.51z"/>
  </g>
  <g fill="url(#bolt-grad)" transform="translate(29,20) rotate(-20) translate(-29,-20) translate(15,-2) scale(0.55)">
    <path d="m60 47.41h-5.6c-0.3 0-0.59-0.13-0.78-0.35-0.2-0.23-0.27-0.54-0.22-0.83l2.76-17.55c0.06-0.46-0.2-0.91-0.64-1.07-0.44-0.16-0.93 0-1.19 0.39l-15.21 23c-0.23 0.32-0.26 0.73-0.07 1.08 0.19 0.34 0.56 0.54 0.95 0.51h5.6c0.3 0 0.59 0.13 0.78 0.35 0.2 0.23 0.27 0.54 0.22 0.83l-2.78 17.55c-0.13 0.49 0.14 1 0.61 1.18 0.47 0.18 1-0.02 1.25-0.46l15.21-23.04c0.23-0.32 0.26-0.73 0.07-1.08-0.19-0.34-0.56-0.54-0.95-0.51z"/>
  </g>
  <g fill="url(#bolt-grad)" transform="translate(44,20) rotate(-20) translate(-44,-20) translate(30,-2) scale(0.55)">
    <path d="m60 47.41h-5.6c-0.3 0-0.59-0.13-0.78-0.35-0.2-0.23-0.27-0.54-0.22-0.83l2.76-17.55c0.06-0.46-0.2-0.91-0.64-1.07-0.44-0.16-0.93 0-1.19 0.39l-15.21 23c-0.23 0.32-0.26 0.73-0.07 1.08 0.19 0.34 0.56 0.54 0.95 0.51h5.6c0.3 0 0.59 0.13 0.78 0.35 0.2 0.23 0.27 0.54 0.22 0.83l-2.78 17.55c-0.13 0.49 0.14 1 0.61 1.18 0.47 0.18 1-0.02 1.25-0.46l15.21-23.04c0.23-0.32 0.26-0.73 0.07-1.08-0.19-0.34-0.56-0.54-0.95-0.51z"/>
  </g>
</svg>
